<?xml version="1.0" standalone="no"?><!DOCTYPE svg PUBLIC "-//W3C//DTD SVG 1.1//EN" "http://www.w3.org/Graphics/SVG/1.1/DTD/svg11.dtd"><svg t="1739108482454" class="icon" viewBox="0 0 1024 1024" version="1.1" xmlns="http://www.w3.org/2000/svg" p-id="7580" xmlns:xlink="http://www.w3.org/1999/xlink" width="200" height="200"><path d="M512 512m-512 0a512 512 0 1 0 1024 0 512 512 0 1 0-1024 0Z" fill="#B7E5F5" p-id="7581"></path><path d="M512 512m-317.44 0a317.44 317.44 0 1 0 634.88 0 317.44 317.44 0 1 0-634.88 0Z" fill="#72BFEF" p-id="7582"></path><path d="M308.67456 755.78368A316.16 316.16 0 0 0 512 829.44a316.16 316.16 0 0 0 203.32544-73.65632C668.52864 694.7328 594.86208 655.36 512 655.36c-82.86208 0-156.53888 39.3728-203.32544 100.42368z" fill="#0B63BF" p-id="7583"></path><path d="M512 481.28m-122.88 0a122.88 122.88 0 1 0 245.76 0 122.88 122.88 0 1 0-245.76 0Z" fill="#0B63BF" p-id="7584"></path></svg>